HIERARCHY
ROOT Hips
{
 OFFSET 0.000000 0.000000 0.000000
 CHANNELS 6 Xposition Yposition Zposition Yrotation Xrotation Zrotation
 JOINT Chest
 {
  OFFSET 0.000000 9.585900 0.002600
  CHANNELS 3 Yrotation Xrotation Zrotation
  JOINT Chest2
  {
   OFFSET 0.000000 9.601200 -0.005300
   CHANNELS 3 Yrotation Xrotation Zrotation
   JOINT Chest3
   {
    OFFSET 0.000000 9.561800 0.000000
    CHANNELS 3 Yrotation Xrotation Zrotation
    JOINT Chest4
    {
     OFFSET 0.000000 9.552100 0.000000
     CHANNELS 3 Yrotation Xrotation Zrotation
     JOINT Neck
     {
      OFFSET 0.000000 14.453000 0.000000
      CHANNELS 3 Yrotation Xrotation Zrotation
      JOINT Head
      {
       OFFSET 0.000000 8.936500 -0.011300
       CHANNELS 3 Yrotation Xrotation Zrotation
       End Site
       {
        OFFSET 0.000000 17.073600 -0.006000
       }
      }
     }
     JOINT RightCollar
     {
      OFFSET -2.921100 9.558500 0.000000
      CHANNELS 3 Yrotation Xrotation Zrotation
      JOINT RightShoulder
      {
       OFFSET -13.519700 0.000000 0.000000
       CHANNELS 3 Yrotation Xrotation Zrotation
       JOINT RightElbow
       {
        OFFSET 0.000000 -29.696600 0.000000
        CHANNELS 3 Yrotation Xrotation Zrotation
        JOINT RightWrist
        {
         OFFSET 0.000000 -24.004700 0.000000
         CHANNELS 3 Yrotation Xrotation Zrotation
         End Site
         {
          OFFSET 0.000000 -17.728500 0.000000
         }
        }
       }
      }
     }
     JOINT LeftCollar
     {
      OFFSET 2.921100 9.558500 0.000000
      CHANNELS 3 Yrotation Xrotation Zrotation
      JOINT LeftShoulder
      {
       OFFSET 13.519700 0.000000 0.000000
       CHANNELS 3 Yrotation Xrotation Zrotation
       JOINT LeftElbow
       {
        OFFSET 0.000000 -29.696600 0.000000
        CHANNELS 3 Yrotation Xrotation Zrotation
        JOINT LeftWrist
        {
         OFFSET 0.000000 -24.004700 0.000000
         CHANNELS 3 Yrotation Xrotation Zrotation
         End Site
         {
          OFFSET 0.000000 -17.728500 0.000000
         }
        }
       }
      }
     }
    }
   }
  }
 }
 JOINT RightHip
 {
  OFFSET -7.771700 -0.012900 -0.001300
  CHANNELS 3 Yrotation Xrotation Zrotation
  JOINT RightKnee
  {
   OFFSET 0.000000 -40.869800 0.001200
   CHANNELS 3 Yrotation Xrotation Zrotation
   JOINT RightAnkle
   {
    OFFSET 0.000000 -39.717900 0.002100
    CHANNELS 3 Yrotation Xrotation Zrotation
    JOINT RightToe
    {
     OFFSET 0.000000 -4.965400 11.033500
     CHANNELS 3 Yrotation Xrotation Zrotation
     End Site
     {
      OFFSET 0.000000 -1.423100 5.872300
     }
    }
   }
  }
 }
 JOINT LeftHip
 {
  OFFSET 7.771700 -0.012900 -0.001300
  CHANNELS 3 Yrotation Xrotation Zrotation
  JOINT LeftKnee
  {
   OFFSET 0.000000 -40.869800 0.001200
   CHANNELS 3 Yrotation Xrotation Zrotation
   JOINT LeftAnkle
   {
    OFFSET 0.000000 -39.717900 0.002100
    CHANNELS 3 Yrotation Xrotation Zrotation
    JOINT LeftToe
    {
     OFFSET 0.000000 -4.965400 11.033500
     CHANNELS 3 Yrotation Xrotation Zrotation
     End Site
     {
      OFFSET 0.000000 -1.423100 5.872300
     }
    }
   }
  }
 }
}
MOTION
Frames: 16
Frame Time: 0.008333
-15.802537 58.797731 40.748104 -167.106343 -24.422306 -7.037384 -5.056129 21.029937 3.658095 -0.779784 2.852516 0.420131 -1.271719 4.683883 0.667544 -4.622675 17.771672 2.028880 1.212795 8.971105 -1.336733 3.010584 -19.084057 -3.194046 3.259373 -2.543776 -0.764734 13.148058 -19.171922 -19.935280 160.974477 -82.511754 -122.408850 21.334652 -20.901778 -51.766341 -5.804175 -4.386191 0.019194 -0.830767 -7.758337 -2.822744 56.307177 -77.828585 -91.214645 3.187598 -6.384168 16.071334 -2.393869 -43.961532 -7.334765 -3.296000 66.221596 -3.901767 4.578753 9.503122 8.804552 -0.069771 -6.621397 0.334473 -19.351138 -53.669463 -1.068692 30.498672 68.025636 30.527107 -10.318640 31.727692 2.405230 0.072647 -18.917141 -5.609841
-15.807283 58.796220 40.747320 -167.091293 -24.432532 -7.028371 -5.064648 21.008425 3.643528 -0.780010 2.847055 0.418730 -1.269218 4.680373 0.665523 -4.633398 17.751825 2.022319 1.162275 8.939040 -1.310761 2.900856 -19.146670 -3.120587 3.240959 -2.566610 -0.776050 13.138526 -19.157730 -19.897886 160.812925 -82.509649 -122.273318 21.316681 -20.904860 -51.754341 -5.850279 -4.400880 0.004871 -0.865920 -7.819313 -2.711777 56.452569 -77.869968 -91.381584 3.194391 -6.384125 16.094159 -2.376884 -43.953667 -7.354165 -3.312754 66.233376 -3.932238 4.581369 9.505348 8.818644 -0.072173 -6.633539 0.339864 -19.325121 -53.663072 -1.110138 30.498846 68.018535 30.529009 -10.324332 31.723180 2.409754 0.067944 -18.882498 -5.607761
-15.810513 58.794647 40.747039 -167.071954 -24.442322 -7.024864 -5.078919 20.986420 3.630610 -0.780432 2.842544 0.416986 -1.266491 4.669459 0.665581 -4.646505 17.743088 2.009712 1.109431 8.910453 -1.285804 2.786801 -19.202757 -3.047791 3.233293 -2.566810 -0.783995 13.111940 -19.220430 -19.887773 160.720720 -82.549173 -122.189349 21.280322 -20.913186 -51.719522 -5.878543 -4.401837 -0.009059 -0.913289 -7.897504 -2.605011 56.585490 -77.905598 -91.537095 3.198272 -6.387797 16.121603 -2.374049 -43.943579 -7.360368 -3.326260 66.242236 -3.966070 4.576242 9.500054 8.837971 -0.071682 -6.637396 0.340262 -19.253400 -53.659658 -1.189175 30.456788 68.015600 30.522336 -10.321847 31.738758 2.418220 0.057188 -18.866605 -5.606754
-15.811859 58.793009 40.747344 -167.054873 -24.452062 -7.025331 -5.093561 20.966741 3.621007 -0.781395 2.839360 0.414773 -1.261957 4.658559 0.662997 -4.663766 17.739897 1.995489 1.054889 8.883402 -1.262176 2.669926 -19.255964 -2.976697 3.236866 -2.541359 -0.777392 13.105042 -19.228032 -19.878771 160.610042 -82.526503 -122.112464 21.291618 -20.911062 -51.720445 -5.898485 -4.410067 -0.022411 -0.959100 -7.974235 -2.498303 56.721337 -77.927428 -91.696804 3.198352 -6.389389 16.142143 -2.373360 -43.933413 -7.362868 -3.355151 66.249103 -4.006810 4.577664 9.497371 8.850451 -0.071625 -6.641629 0.341839 -19.217859 -53.654805 -1.231098 30.402045 68.019197 30.488313 -10.325173 31.753535 2.412940 0.060011 -18.851229 -5.603743
-15.810679 58.792146 40.746433 -167.041292 -24.473389 -7.034775 -5.103564 20.962077 3.619902 -0.781868 2.851133 0.414989 -1.260004 4.635917 0.657080 -4.672247 17.757195 1.990644 0.989342 8.839819 -1.249839 2.547903 -19.308903 -2.908436 3.237269 -2.572033 -0.803116 13.088798 -19.211336 -19.836836 160.481544 -82.503860 -122.011410 21.277369 -20.914262 -51.712566 -5.922001 -4.443821 -0.043241 -1.000319 -8.047664 -2.388803 56.884228 -77.933541 -91.883612 3.193597 -6.386919 16.152789 -2.381974 -43.911294 -7.350620 -3.369789 66.254477 -4.031582 4.581510 9.499257 8.857173 -0.074196 -6.649943 0.345068 -19.188079 -53.638465 -1.256443 30.366814 68.026004 30.470124 -10.339389 31.769725 2.405836 0.066498 -18.843639 -5.599894
-15.809806 58.792050 40.744286 -167.022279 -24.509065 -7.040266 -5.119566 20.986269 3.611813 -0.783345 2.849285 0.414527 -1.263966 4.618055 0.651721 -4.675364 17.770909 1.984667 0.961039 8.829287 -1.241374 2.377052 -19.388812 -2.838755 3.242624 -2.601596 -0.832095 13.071353 -19.218958 -19.802911 160.406781 -82.514933 -121.944956 21.268937 -20.920664 -51.712621 -5.945503 -4.477002 -0.069187 -1.035087 -8.120343 -2.277031 57.051746 -77.931179 -92.077631 3.191323 -6.385922 16.158896 -2.387378 -43.872304 -7.344158 -3.381299 66.260598 -4.059489 4.580982 9.490649 8.871006 -0.082900 -6.651138 0.346293 -19.152598 -53.609075 -1.294843 30.387691 68.019168 30.500709 -10.383142 31.794018 2.395354 0.074782 -18.846294 -5.594683
-15.808238 58.790354 40.746004 -167.012039 -24.526510 -7.035254 -5.130949 20.991693 3.597833 -0.780048 2.815594 0.405546 -1.268499 4.638726 0.652008 -4.683861 17.760042 1.957097 0.880153 8.804461 -1.216557 2.253780 -19.432339 -2.776049 3.252368 -2.600952 -0.828066 13.071190 -19.274602 -19.811814 160.492146 -82.594590 -122.023888 21.294527 -20.930070 -51.735294 -5.970427 -4.488095 -0.077860 -1.062361 -8.193673 -2.162471 57.183191 -77.920872 -92.241950 3.191359 -6.387243 16.164136 -2.379468 -43.856857 -7.352253 -3.391220 66.266828 -4.076635 4.579029 9.487061 8.877947 -0.080514 -6.651939 0.346449 -19.119391 -53.597398 -1.328518 30.388727 68.006810 30.512686 -10.433370 31.822387 2.379315 0.095764 -18.852358 -5.596666
-15.807120 58.789431 40.746632 -167.007368 -24.559147 -7.021787 -5.135788 20.999603 3.578774 -0.779763 2.821642 0.398129 -1.269299 4.634416 0.652307 -4.686433 17.772316 1.950873 0.783337 8.763084 -1.222364 2.121785 -19.478443 -2.715716 3.254192 -2.615830 -0.839339 13.071535 -19.292334 -19.808899 160.445773 -82.599774 -122.011709 21.283198 -20.947105 -51.733529 -5.995277 -4.515006 -0.098279 -1.095665 -8.279404 -2.054008 57.285264 -77.895006 -92.375917 3.188808 -6.388332 16.171975 -2.361104 -43.828297 -7.369396 -3.405428 66.274727 -4.097676 4.580315 9.482660 8.883732 -0.075864 -6.652852 0.345987 -19.075423 -53.571513 -1.373678 30.371292 68.001039 30.498294 -10.449305 31.845029 2.382216 0.107564 -18.863362 -5.605007
-15.804761 58.787643 40.749807 -167.012729 -24.581761 -7.003846 -5.124692 20.985954 3.552608 -0.788622 2.847788 0.404367 -1.268705 4.627576 0.642723 -4.686134 17.779143 1.910243 0.709666 8.741731 -1.190264 1.963385 -19.533258 -2.660742 3.252848 -2.618043 -0.793060 13.082296 -19.319848 -19.826173 160.371610 -82.598170 -121.974791 21.256812 -20.960775 -51.727029 -6.007076 -4.513470 -0.056267 -1.147113 -8.391076 -1.964557 57.377150 -77.852832 -92.494338 3.185922 -6.387347 16.184506 -2.329789 -43.812347 -7.380112 -3.430648 66.280058 -4.138111 4.578409 9.481778 8.898220 -0.074301 -6.653484 0.346285 -19.039249 -53.556310 -1.406190 30.365810 67.990671 30.491399 -10.470412 31.872624 2.394558 0.113383 -18.870279 -5.622648
-15.802919 58.786777 40.751704 -167.005888 -24.618736 -6.986233 -5.130980 21.014058 3.527530 -0.790338 2.848739 0.401844 -1.257543 4.621972 0.628376 -4.686352 17.796004 1.890414 0.626488 8.717903 -1.178018 1.796455 -19.580205 -2.612492 3.242372 -2.653498 -0.779345 13.090670 -19.328290 -19.817351 160.268975 -82.591484 -121.912281 21.205472 -20.967745 -51.702339 -6.053879 -4.563257 -0.046311 -1.175361 -8.467609 -1.850550 57.447347 -77.801857 -92.595259 3.188067 -6.386567 16.202312 -2.307954 -43.780452 -7.407206 -3.425476 66.288847 -4.136194 4.571121 9.477342 8.900128 -0.074390 -6.652876 0.345842 -19.004804 -53.526823 -1.452698 30.373165 67.978283 30.494969 -10.484358 31.894056 2.397570 0.109480 -18.870676 -5.627046
-15.800252 58.786333 40.753439 -167.002030 -24.662648 -6.969502 -5.131431 21.049222 3.505818 -0.769872 2.834727 0.394334 -1.280664 4.641391 0.634845 -4.675553 17.805398 1.859726 0.537620 8.699246 -1.178298 1.622863 -19.617483 -2.570919 3.236283 -2.716657 -0.794156 13.082842 -19.317398 -19.778711 160.191839 -82.587464 -121.875098 21.194777 -20.973977 -51.713570 -6.141375 -4.663535 -0.085630 -1.174681 -8.502264 -1.684751 57.496204 -77.748366 -92.681893 3.201760 -6.390526 16.225140 -2.285659 -43.739923 -7.430963 -3.394698 66.295399 -4.112018 4.562153 9.467299 8.903132 -0.079747 -6.647269 0.345985 -18.963356 -53.490595 -1.502766 30.377844 67.969214 30.497938 -10.489664 31.911124 2.407636 0.108481 -18.878153 -5.637510
-15.797042 58.785965 40.755641 -167.007846 -24.710041 -6.948636 -5.115235 21.077747 3.484720 -0.772940 2.842589 0.393061 -1.276373 4.644008 0.627303 -4.679259 17.816170 1.855005 0.450553 8.691886 -1.202903 1.447513 -19.646442 -2.538412 3.231871 -2.743765 -0.792943 13.088170 -19.322465 -19.775911 160.090840 -82.569609 -121.814303 21.216727 -20.985156 -51.776798 -6.185087 -4.716949 -0.105773 -1.208809 -8.588818 -1.553416 57.539642 -77.689361 -92.766160 3.223128 -6.399442 16.260935 -2.258330 -43.700784 -7.446084 -3.406688 66.301651 -4.135637 4.558995 9.468958 8.908159 -0.073266 -6.649839 0.345674 -18.929298 -53.449369 -1.541594 30.386969 67.961851 30.495448 -10.482275 31.912936 2.424860 0.099122 -18.872579 -5.649716
-15.792887 58.785765 40.758014 -167.011508 -24.760532 -6.931520 -5.099514 21.110773 3.467962 -0.783315 2.854557 0.392411 -1.250156 4.643271 0.608826 -4.681772 17.838235 1.837286 0.356596 8.677504 -1.204897 1.273049 -19.668748 -2.517008 3.212501 -2.771441 -0.752964 13.089638 -19.323954 -19.775441 159.975403 -82.535353 -121.728184 21.209051 -20.989382 -51.806440 -6.238396 -4.780242 -0.097623 -1.253924 -8.681661 -1.417132 57.562596 -77.619793 -92.833118 3.254473 -6.398451 16.336624 -2.239010 -43.657605 -7.461671 -3.409460 66.306846 -4.142482 4.558813 9.469808 8.906132 -0.073819 -6.650804 0.345211 -18.905362 -53.403715 -1.576027 30.403818 67.952733 30.502936 -10.475782 31.910617 2.432366 0.085864 -18.863081 -5.656662
-15.787041 58.785417 40.761129 -167.013571 -24.808959 -6.921738 -5.083560 21.140293 3.456293 -0.783016 2.859956 0.389443 -1.246278 4.654584 0.606093 -4.671907 17.858466 1.810353 0.261894 8.666405 -1.213264 1.099939 -19.684979 -2.507545 3.186031 -2.821356 -0.734332 13.108396 -19.331396 -19.772929 159.707441 -82.478678 -121.549787 21.090101 -20.999712 -51.743575 -6.288880 -4.845331 -0.090950 -1.309160 -8.784170 -1.276033 57.545801 -77.538737 -92.864008 3.305480 -6.369682 16.461944 -2.232951 -43.615090 -7.465502 -3.407346 66.309376 -4.144250 4.558735 9.469634 8.900329 -0.074824 -6.649074 0.345212 -18.893043 -53.358355 -1.593425 30.413043 67.946540 30.502957 -10.481187 31.904353 2.424789 0.086100 -18.853935 -5.658316
-15.783728 58.784086 40.766368 -167.011557 -24.850230 -6.893975 -5.060929 21.148660 3.432592 -0.781664 2.871462 0.384549 -1.262308 4.671160 0.605754 -4.665197 17.875640 1.793359 0.170407 8.662532 -1.236933 0.931958 -19.693903 -2.509994 3.172042 -2.890152 -0.754107 13.106741 -19.324036 -19.735844 159.581331 -82.472602 -121.476378 21.075782 -21.000851 -51.761958 -6.330132 -4.909432 -0.094805 -1.372412 -8.898205 -1.127548 57.486688 -77.442290 -92.860707 3.330186 -6.388988 16.562513 -2.216813 -43.583845 -7.503150 -3.402324 66.316255 -4.136390 4.562445 9.466550 8.889472 -0.073901 -6.644615 0.343504 -18.882383 -53.317753 -1.620580 30.400728 67.931197 30.468446 -10.492737 31.891591 2.406987 0.093503 -18.831497 -5.654390
-15.777645 58.781771 40.773941 -166.996887 -24.875163 -6.883077 -5.066284 21.157352 3.414845 -0.781190 2.876795 0.382267 -1.261383 4.679497 0.601956 -4.659567 17.891557 1.777114 0.121325 8.655598 -1.234538 0.745601 -19.685711 -2.547737 3.159873 -2.928896 -0.748337 13.104836 -19.364966 -19.748975 159.576685 -82.499140 -121.509883 21.081348 -21.002788 -51.791995 -6.357035 -4.946007 -0.080742 -1.449173 -9.051100 -0.983203 57.377496 -77.327747 -92.821566 3.366211 -6.418216 16.697254 -2.222944 -43.564993 -7.518103 -3.399122 66.318893 -4.136125 4.560358 9.464654 8.884851 -0.078552 -6.639078 0.341303 -18.876730 -53.293352 -1.646031 30.352177 67.920719 30.424885 -10.506661 31.890669 2.376439 0.106753 -18.816393 -5.650313
